<?xml version="1.0"?>
<svg xmlns:rdf="http://www.w3.org/1999/02/22-rdf-syntax-ns#" xmlns="http://www.w3.org/2000/svg" xmlns:cc="http://creativecommons.org/ns#" xmlns:xlink="http://www.w3.org/1999/xlink" xmlns:dc="http://purl.org/dc/elements/1.1/" xmlns:svg="http://www.w3.org/2000/svg" id="svg5651" viewBox="0 0 616.97 370.45" version="1.1">
  <defs id="defs5653">
    <filter id="filter4432" width="1.2216" y="-.049238" x="-.11082" height="1.0985" color-interpolation-filters="sRGB">
      <feGaussianBlur id="feGaussianBlur4434" stdDeviation="0.21601903"/>
    </filter>
    <filter id="filter4271" color-interpolation-filters="sRGB">
      <feGaussianBlur id="feGaussianBlur4273" stdDeviation="0.093571648"/>
    </filter>
    <filter id="filter4442" width="1.2487" y="-.056051" x="-.12436" height="1.1121" color-interpolation-filters="sRGB">
      <feGaussianBlur id="feGaussianBlur4444" stdDeviation="0.29820666"/>
    </filter>
    <filter id="filter4842" color-interpolation-filters="sRGB">
      <feGaussianBlur id="feGaussianBlur4844" stdDeviation="0.15875061"/>
    </filter>
    <filter id="filter4452" color-interpolation-filters="sRGB">
      <feGaussianBlur id="feGaussianBlur4454" stdDeviation="0.18783888"/>
    </filter>
    <filter id="filter4740" color-interpolation-filters="sRGB">
      <feGaussianBlur id="feGaussianBlur4742" stdDeviation="0.042204623"/>
    </filter>
    <filter id="filter4183" color-interpolation-filters="sRGB">
      <feGaussianBlur id="feGaussianBlur4185" stdDeviation="0.17541562"/>
    </filter>
    <filter id="filter4299" width="1.3248" y="-.13171" x="-.1624" height="1.2634" color-interpolation-filters="sRGB">
      <feGaussianBlur id="feGaussianBlur4301" stdDeviation="0.17036048"/>
    </filter>
    <linearGradient id="linearGradient4737">
      <stop id="stop4739" offset="0"/>
      <stop id="stop4975" stop-color="#3a3414" offset=".028399"/>
      <stop id="stop4973" stop-color="#746828" offset=".056799"/>
      <stop id="stop4741" stop-color="#e8d050" offset=".1136"/>
      <stop id="stop4743" stop-color="#602400" offset=".22677"/>
      <stop id="stop4745" stop-color="#b87c00" offset=".64276"/>
      <stop id="stop4747" stop-color="#c08400" offset=".84128"/>
      <stop id="stop4749" stop-color="#fcfc80" offset="1"/>
    </linearGradient>
    <filter id="filter4498" color-interpolation-filters="sRGB">
      <feGaussianBlur id="feGaussianBlur4500" stdDeviation="0.074687311"/>
    </filter>
    <linearGradient id="linearGradient4671">
      <stop id="stop4673" offset="0"/>
      <stop id="stop4685" stop-color="#3c0000" offset=".0625"/>
      <stop id="stop4683" stop-color="#602400" offset=".2529"/>
      <stop id="stop4681" stop-color="#b87c00" offset=".68773"/>
      <stop id="stop4679" stop-color="#dcb830" offset=".86904"/>
      <stop id="stop4675" stop-color="#fcfc80" offset="1"/>
    </linearGradient>
    <linearGradient id="linearGradient4229">
      <stop id="stop4231" offset="0"/>
      <stop id="stop4241" stop-color="#fcfc80" offset="1"/>
    </linearGradient>
    <filter id="filter4199" color-interpolation-filters="sRGB">
      <feGaussianBlur id="feGaussianBlur4201" stdDeviation="0.099925237"/>
    </filter>
    <filter id="filter4470" width="1.2493" y="-.077334" x="-.12467" height="1.1547" color-interpolation-filters="sRGB">
      <feGaussianBlur id="feGaussianBlur4472" stdDeviation="0.42189817"/>
    </filter>
    <filter id="filter4490" color-interpolation-filters="sRGB">
      <feGaussianBlur id="feGaussianBlur4492" stdDeviation="0.17803364"/>
    </filter>
    <filter id="filter4407" color-interpolation-filters="sRGB">
      <feGaussianBlur id="feGaussianBlur4409" stdDeviation="0.17786795"/>
    </filter>
    <filter id="filter4351" width="1.2362" y="-.043555" x="-.11808" height="1.0871" color-interpolation-filters="sRGB">
      <feGaussianBlur id="feGaussianBlur4353" stdDeviation="0.23409678"/>
    </filter>
    <filter id="filter4414" color-interpolation-filters="sRGB">
      <feGaussianBlur id="feGaussianBlur4416" stdDeviation="0.17338871"/>
    </filter>
    <linearGradient id="linearGradient4959">
      <stop id="stop4961" offset="0"/>
      <stop id="stop5003" offset=".017749"/>
      <stop id="stop5001" stop-color="#fcfc80" offset=".035497"/>
      <stop id="stop4999" stop-color="#9c6000" offset=".088189"/>
      <stop id="stop4997" stop-color="#fcfc80" offset=".14199"/>
      <stop id="stop4995" stop-color="#d4a418" offset=".21972"/>
      <stop id="stop4993" stop-color="#fcfc80" offset=".26933"/>
      <stop id="stop4991" stop-color="#e0bc38" offset=".29741"/>
      <stop id="stop4989" stop-color="#6c3000" offset=".37605"/>
      <stop id="stop4987" stop-color="#8c5000" offset=".43689"/>
      <stop id="stop4985" stop-color="#fcfc80" offset=".49139"/>
      <stop id="stop4983" stop-color="#c48800" offset=".53767"/>
      <stop id="stop4981" stop-color="#a46800" offset=".60021"/>
      <stop id="stop4979" stop-color="#fcfc80" offset=".6431"/>
      <stop id="stop4977" stop-color="#746828" offset=".69609"/>
      <stop id="stop4963" stop-color="#804400" offset=".76418"/>
      <stop id="stop4965" stop-color="#602400" offset=".82788"/>
      <stop id="stop4967" stop-color="#b87c00" offset=".88869"/>
      <stop id="stop4969" stop-color="#c08400" offset=".9425"/>
      <stop id="stop4971" stop-color="#fcfc80" offset="1"/>
    </linearGradient>
    <linearGradient id="linearGradient8047" y2="440.16" gradientUnits="userSpaceOnUse" x2="574.91" gradientTransform="matrix(6.13 0 0 5.9746 -2933.6 -2400.9)" y1="450.78" x1="577.14">
      <stop id="stop4393" offset="0"/>
      <stop id="stop4395" stop-color="#e8d050" offset=".22055"/>
      <stop id="stop4397" stop-color="#602400" offset=".39789"/>
      <stop id="stop4399" stop-color="#b87c00" offset=".64276"/>
      <stop id="stop4401" stop-color="#c08400" offset=".84128"/>
      <stop id="stop4403" stop-color="#fcfc80" offset="1"/>
    </linearGradient>
    <linearGradient id="linearGradient8051" y2="463.95" xlink:href="#linearGradient4737" gradientUnits="userSpaceOnUse" x2="581.32" gradientTransform="matrix(11.57 0 0 11.57 -6499.3 -4944)" y1="456.06" x1="581.94"/>
    <linearGradient id="linearGradient8055" y2="478.26" xlink:href="#linearGradient4671" gradientUnits="userSpaceOnUse" x2="484.84" gradientTransform="matrix(5.6541 0 0 5.6308 -2662.1 -2243.6)" y1="489.74" x1="488.88"/>
    <linearGradient id="linearGradient8058" y2="480.14" xlink:href="#linearGradient4671" gradientUnits="userSpaceOnUse" x2="486.88" gradientTransform="matrix(5.5284 0 0 5.5693 -2601 -2214.3)" y1="489.46" x1="490.4"/>
    <linearGradient id="linearGradient8062" y2="446.87" xlink:href="#linearGradient4671" gradientUnits="userSpaceOnUse" x2="615.66" gradientTransform="matrix(11.57 0 0 11.57 -6497 -4945.2)" y1="447.71" x1="616.19"/>
    <linearGradient id="linearGradient8065" y2="450.82" gradientUnits="userSpaceOnUse" x2="609.89" gradientTransform="matrix(11.57 0 0 11.57 -6495.2 -4944.2)" y1="455.26" x1="613.13">
      <stop id="stop4371" offset="0"/>
      <stop id="stop4373" stop-color="#3c0000" offset=".097181"/>
      <stop id="stop4375" stop-color="#fd5" offset=".23421"/>
      <stop id="stop4377" stop-color="#b87c00" offset=".68773"/>
      <stop id="stop4379" stop-color="#dcb830" offset=".86904"/>
      <stop id="stop4381" stop-color="#fcfc80" offset="1"/>
    </linearGradient>
    <linearGradient id="linearGradient8068" y2="453.93" xlink:href="#linearGradient4671" gradientUnits="userSpaceOnUse" x2="605.29" gradientTransform="matrix(11.57 0 0 11.57 -6495.6 -4947.1)" y1="459.35" x1="607.5"/>
    <linearGradient id="linearGradient8071" y2="448.96" xlink:href="#linearGradient4671" gradientUnits="userSpaceOnUse" x2="599.28" gradientTransform="matrix(11.57 0 0 11.57 -6497.5 -4948.4)" y1="458.37" x1="601.91"/>
    <linearGradient id="linearGradient8075" y2="452.77" xlink:href="#linearGradient4671" gradientUnits="userSpaceOnUse" x2="596.13" gradientTransform="matrix(11.57 0 0 11.57 -6496.9 -4944.6)" y1="454.68" x1="597.9"/>
    <linearGradient id="linearGradient8079" y2="461.48" gradientUnits="userSpaceOnUse" x2="596.44" gradientTransform="matrix(11.57 0 0 11.57 -6495.2 -4944.2)" y1="455.48" x1="592.58">
      <stop id="stop4357" offset="0"/>
      <stop id="stop4359" stop-color="#e8d050" offset=".23043"/>
      <stop id="stop4361" stop-color="#602400" offset=".42179"/>
      <stop id="stop4363" stop-color="#b87c00" offset=".56319"/>
      <stop id="stop4365" stop-color="#c08400" offset=".64487"/>
      <stop id="stop4367" stop-color="#fcfc80" offset="1"/>
    </linearGradient>
    <linearGradient id="linearGradient8083" y2="458.12" gradientUnits="userSpaceOnUse" x2="589.02" gradientTransform="matrix(11.57 0 0 11.57 -6495.2 -4944.2)" y1="467.32" x1="588.11">
      <stop id="stop4321" offset="0"/>
      <stop id="stop4323" stop-color="#e8d050" offset=".20422"/>
      <stop id="stop4325" stop-color="#602400" offset=".46076"/>
      <stop id="stop4327" stop-color="#b87c00" offset=".62046"/>
      <stop id="stop4329" stop-color="#c08400" offset=".84128"/>
      <stop id="stop4331" stop-color="#fcfc80" offset="1"/>
    </linearGradient>
    <linearGradient id="linearGradient8086" y2="466.35" gradientUnits="userSpaceOnUse" x2="502.69" gradientTransform="matrix(5.8322 0 0 5.906 -2755.8 -2374.3)" y1="478.67" x1="504.29">
      <stop id="stop4848" offset="0"/>
      <stop id="stop4850" stop-color="#3c0000" offset=".14378"/>
      <stop id="stop4852" stop-color="#602400" offset=".3423"/>
      <stop id="stop4854" stop-color="#b87c00" offset=".55471"/>
      <stop id="stop4856" stop-color="#dcb830" offset=".70468"/>
      <stop id="stop4858" stop-color="#fcfc80" offset="1"/>
    </linearGradient>
    <linearGradient id="linearGradient8089" y2="464.52" xlink:href="#linearGradient4671" gradientUnits="userSpaceOnUse" x2="560.2" gradientTransform="matrix(11.57 0 0 11.57 -6325.8 -4929.8)" y1="464.52" x1="556.62"/>
    <linearGradient id="linearGradient8093" y2="446.73" xlink:href="#linearGradient4959" gradientUnits="userSpaceOnUse" x2="605.48" gradientTransform="matrix(11.57 0 0 11.57 -6325.3 -4931.9)" y1="471.23" x1="554.38"/>
    <linearGradient id="linearGradient8096" y2="446.73" xlink:href="#linearGradient4959" gradientUnits="userSpaceOnUse" x2="605.48" gradientTransform="matrix(11.57 0 0 11.57 -6329.7 -4947)" y1="471.23" x1="554.38"/>
    <linearGradient id="linearGradient8099" y2="446.73" xlink:href="#linearGradient4959" gradientUnits="userSpaceOnUse" x2="605.48" gradientTransform="matrix(11.57 0 0 11.57 -6333.5 -4966)" y1="471.23" x1="554.38"/>
    <linearGradient id="linearGradient8102" y2="446.73" xlink:href="#linearGradient4959" gradientUnits="userSpaceOnUse" x2="605.48" gradientTransform="matrix(11.57 0 0 11.57 -6340.4 -4981.8)" y1="471.23" x1="554.38"/>
    <linearGradient id="linearGradient8105" y2="446.73" xlink:href="#linearGradient4959" gradientUnits="userSpaceOnUse" x2="605.48" gradientTransform="matrix(11.57 0 0 11.57 -6346.7 -4996.3)" y1="471.23" x1="554.38"/>
    <linearGradient id="linearGradient8115" y2="440.66" xlink:href="#linearGradient4737" gradientUnits="userSpaceOnUse" x2="611.82" gradientTransform="matrix(11.57 0 0 11.57 -6325.8 -4933.1)" y1="468.37" x1="552.63"/>
    <linearGradient id="linearGradient8118" y2="441.87" xlink:href="#linearGradient4737" gradientUnits="userSpaceOnUse" x2="598.32" gradientTransform="matrix(11.57 0 0 11.57 -6325.8 -4933.1)" y1="474.82" x1="556.15"/>
    <linearGradient id="linearGradient8139" y2="196.88" xlink:href="#linearGradient4229" gradientUnits="userSpaceOnUse" x2="114.07" y1="198.93" x1="112.7"/>
    <linearGradient id="linearGradient8141" y2="196.91" xlink:href="#linearGradient4229" gradientUnits="userSpaceOnUse" x2="114.3" y1="198.85" x1="113.31"/>
  </defs>
  <g id="layer1" transform="translate(-55.566 -163.1)">
    <path id="path4418" d="m611.02 456.62 0.26368-0.10756 4.4146 10.397-0.20154 0.13248z" fill-opacity=".61017" transform="matrix(5.7572 0 0 5.7572 -3183.3 -2270.1)" filter="url(#filter4432)" fill="#999"/>
    <path id="path4275" d="m567.04 473.48 0.24833-0.11957 5.187 10.801-0.20509 0.23227z" fill-opacity=".61864" transform="matrix(5.5928 0 0 5.6007 -3090.1 -2196)" filter="url(#filter4271)" fill="#999"/>
    <path id="path4824" filter="url(#filter4842)" d="m567.49 459.36c2.6067-0.94465 1.9077 6.5473 4.6589 6.8905 6.5592 0.8183 8.1993-13.487 14.803-13.195 2.0047 0.0887 2.1193 4.2722 4.1227 4.3869 5.8098 0.33249 13.295-11.338 13.295-11.338s-7.5231 11.515-13.333 11.182c-2.0034-0.11465-2.1179-4.2982-4.1227-4.3869-6.6036-0.29207-8.2437 14.014-14.803 13.195-2.7512-0.34323-2.0522-7.8352-4.6589-6.8905-3.3276 1.2059-10.881 14.323-13.745 12.357 2.9024 2.1214 10.455-10.996 13.783-12.202z" transform="matrix(11.57 0 0 11.57 -6324.4 -4929.5)" fill-opacity=".49576"/>
    <path id="path4826" filter="url(#filter4842)" d="m565.59 453.79c2.6067-0.94465 1.9077 6.5473 4.6589 6.8905 6.5592 0.8183 8.1993-13.487 14.803-13.195 2.0047 0.0887 2.1193 4.2722 4.1227 4.3869 5.8098 0.33249 13.295-11.338 13.295-11.338s-7.5231 11.515-13.333 11.182c-2.0034-0.11465-2.1179-4.2982-4.1227-4.3869-6.6036-0.29207-8.2437 14.014-14.803 13.195-2.7512-0.34323-2.0522-7.8352-4.6589-6.8905-3.3276 1.2059-10.881 14.323-13.745 12.357 2.9024 2.1214 10.455-10.996 13.783-12.202z" transform="matrix(11.57 0 0 11.57 -6324.4 -4929.5)" fill-opacity=".49576"/>
    <path id="path4828" filter="url(#filter4842)" d="m566.19 455.03c2.6067-0.94465 1.9077 6.5473 4.6589 6.8905 6.5592 0.8183 8.1993-13.487 14.803-13.195 2.0047 0.0887 2.1193 4.2722 4.1227 4.3869 5.8098 0.33249 13.295-11.338 13.295-11.338s-7.5231 11.515-13.333 11.182c-2.0034-0.11465-2.1179-4.2982-4.1227-4.3869-6.6036-0.29207-8.2437 14.014-14.803 13.195-2.7512-0.34323-2.0522-7.8352-4.6589-6.8905-3.3276 1.2059-10.881 14.323-13.745 12.357 2.9024 2.1214 10.455-10.996 13.783-12.202z" transform="matrix(11.57 0 0 11.57 -6324.4 -4929.5)" fill-opacity=".49576"/>
    <path id="path4830" filter="url(#filter4842)" d="m566.78 456.44c2.6067-0.94465 1.9077 6.5473 4.6589 6.8905 6.5592 0.8183 8.1993-13.487 14.803-13.195 2.0047 0.0887 2.1193 4.2722 4.1227 4.3869 5.8098 0.33249 13.295-11.338 13.295-11.338s-7.5231 11.515-13.333 11.182c-2.0034-0.11465-2.1179-4.2982-4.1227-4.3869-6.6036-0.29207-8.2437 14.014-14.803 13.195-2.7512-0.34323-2.0522-7.8352-4.6589-6.8905-3.3276 1.2059-10.881 14.323-13.745 12.357 2.9024 2.1214 10.455-10.996 13.783-12.202z" transform="matrix(11.57 0 0 11.57 -6324.4 -4929.5)" fill-opacity=".49576"/>
    <path id="path4832" filter="url(#filter4842)" d="m567.18 458.03c2.6067-0.94465 1.9077 6.5473 4.6589 6.8905 6.5592 0.8183 8.1993-13.487 14.803-13.195 2.0047 0.0887 2.1193 4.2722 4.1227 4.3869 5.8098 0.33249 13.295-11.338 13.295-11.338s-7.5231 11.515-13.333 11.182c-2.0034-0.11465-2.1179-4.2982-4.1227-4.3869-6.6036-0.29207-8.2437 14.014-14.803 13.195-2.7512-0.34323-2.0522-7.8352-4.6589-6.8905-3.3276 1.2059-10.881 14.323-13.745 12.357 2.9024 2.1214 10.455-10.996 13.783-12.202z" transform="matrix(11.57 0 0 11.57 -6324.4 -4929.5)" fill-opacity=".49576"/>
    <path id="path4446" d="m644.6 445.56 0.24071 0.0902-1.1735 10.621h-0.2708l1.1434-9.9896c-0.67726 1.3033-2.7968 3.698-4.0529 2.6766-0.39473-0.32096-0.17203-1.6582 0.56358-1.4184 1.221 0.398 2.158 0.28581 2.4964-0.26531z" fill-opacity=".58051" transform="matrix(5.7572 0 0 5.7572 -3183.3 -2270.1)" filter="url(#filter4452)" fill="#808080"/>
    <path id="path4864" style="color:#000000" d="m561.91 461.4c-0.28835 0.34258-0.41581 0.84399-0.13872 1.0862 0.28199 0.24651 0.81417 0.0319 1.0975-0.26949 0.30343-0.32269 0.47026-0.85029 0.19203-1.1037-0.29053-0.26463-0.87237-0.0438-1.1508 0.28699zm0.97659-0.0981c0.18972 0.18109 0.0235 0.51645-0.20452 0.75423-0.18913 0.19713-0.54958 0.41501-0.74078 0.24134-0.19758-0.17948-0.0276-0.54781 0.19048-0.77175 0.21382-0.21959 0.56613-0.40395 0.75482-0.22382z" fill-opacity=".58898" transform="matrix(11.57 0 0 11.57 -6324.1 -4929.8)" filter="url(#filter4740)" fill="#b3b3b3"/>
    <path id="path4277" style="color:#000000" d="m115.24 197.58c0 0.87461-0.54539 1.5836-1.2182 1.5836-0.67277 0-1.2182-0.709-1.2182-1.5836 0-0.87461 0.54539-1.5836 1.2182-1.5836 0.67278 0 1.2182 0.709 1.2182 1.5836z" fill-opacity=".46186" transform="matrix(1.399 -.46010 .46010 1.399 -145.76 250.45)" filter="url(#filter4299)" fill="#ccc"/>
    <path id="path4415" d="m240.01 381.64c30.159-10.929 22.071 75.751 53.903 79.722 75.89 9.4676 94.864-156.05 171.27-152.67 23.195 1.0262 24.52 49.429 47.699 50.756 67.218 3.8469 153.82-131.18 153.82-131.18s-87.042 133.22-154.26 129.38c-23.18-1.32-24.5-49.73-47.7-50.75-76.4-3.38-95.38 162.13-171.27 152.66-31.83-3.97-23.74-90.65-53.9-79.72-38.5 13.95-125.89 165.72-159.03 142.97 33.58 24.54 120.97-127.22 159.47-141.17z" fill="url(#linearGradient8118)"/>
    <path id="path4413" d="m218.01 317.22c30.159-10.93 22.071 75.751 53.903 79.722 75.89 9.4676 94.864-156.05 171.27-152.67 23.195 1.0263 24.52 49.429 47.699 50.756 67.218 3.8469 153.82-131.18 153.82-131.18s-87.042 133.22-154.26 129.38c-23.179-1.3265-24.504-49.73-47.699-50.756-76.403-3.3792-95.378 162.13-171.27 152.67-31.83-3.96-23.74-90.64-53.9-79.72-38.5 13.96-125.89 165.72-159.03 142.97 33.582 24.55 120.97-127.21 159.47-141.17z" fill="url(#linearGradient8118)"/>
    <path id="path4411" d="m224.89 331.47c30.159-10.93 22.071 75.751 53.903 79.722 75.89 9.4676 94.864-156.05 171.27-152.67 23.195 1.0263 24.52 49.429 47.699 50.756 67.218 3.8469 153.82-131.18 153.82-131.18s-87.042 133.22-154.26 129.38c-23.179-1.3265-24.504-49.73-47.699-50.756-76.403-3.3792-95.378 162.13-171.27 152.67-31.831-3.9711-23.744-90.652-53.903-79.722-38.5 13.95-125.89 165.71-159.03 142.97 33.578 24.54 120.97-127.22 159.47-141.17z" fill="url(#linearGradient8118)"/>
    <path id="path4409" d="m231.76 347.78c30.159-10.93 22.071 75.751 53.903 79.722 75.89 9.4676 94.864-156.05 171.27-152.67 23.195 1.0263 24.52 49.429 47.699 50.756 67.218 3.8469 153.82-131.18 153.82-131.18s-87.042 133.22-154.26 129.38c-23.179-1.3265-24.504-49.73-47.699-50.756-76.403-3.3792-95.378 162.13-171.27 152.67-31.832-3.9711-23.744-90.652-53.903-79.722-38.5 13.95-125.88 165.71-159.03 142.97 33.58 24.54 120.97-127.22 159.47-141.17z" fill="url(#linearGradient8118)"/>
    <path id="path2816-5" d="m236.39 366.21c30.159-10.929 22.071 75.751 53.903 79.722 75.89 9.4676 94.864-156.05 171.27-152.67 23.195 1.0262 24.52 49.429 47.699 50.756 67.218 3.8469 153.82-131.18 153.82-131.18s-87.042 133.22-154.26 129.38c-23.179-1.3265-24.504-49.73-47.699-50.756-76.403-3.3792-95.378 162.13-171.27 152.67-31.83-3.97-23.74-90.65-53.9-79.72-38.5 13.95-125.89 165.71-159.03 142.97 33.58 24.54 120.97-127.22 159.47-141.17z" fill="url(#linearGradient8115)"/>
    <path id="path4474" d="m661.99 434.71 0.69866 0.56521 1.5072-1.8762-0.71436-0.55735z" fill-opacity=".37288" transform="matrix(5.7572 0 0 5.7572 -3183.3 -2270.1)" filter="url(#filter4498)" fill="#ccc"/>
    <path id="path3887" d="m115.24 197.58c0 0.87461-0.54539 1.5836-1.2182 1.5836-0.67277 0-1.2182-0.709-1.2182-1.5836 0-0.87461 0.54539-1.5836 1.2182-1.5836 0.67278 0 1.2182 0.709 1.2182 1.5836z" style="color:#000000" fill="url(#linearGradient8139)" transform="matrix(1.399 -.46010 .46010 1.399 -147.98 249.91)"/>
    <path id="path4303" style="color:#000000" d="m115.24 197.58c0 0.87461-0.54539 1.5836-1.2182 1.5836-0.67277 0-1.2182-0.709-1.2182-1.5836 0-0.87461 0.54539-1.5836 1.2182-1.5836 0.67278 0 1.2182 0.709 1.2182 1.5836z" fill-opacity=".46186" transform="matrix(1.399 -.46010 .46010 1.399 -140.6 263.01)" filter="url(#filter4299)" fill="#b3b3b3"/>
    <path id="path3887-0" d="m115.24 197.58c0 0.87461-0.54539 1.5836-1.2182 1.5836-0.67277 0-1.2182-0.709-1.2182-1.5836 0-0.87461 0.54539-1.5836 1.2182-1.5836 0.67278 0 1.2182 0.709 1.2182 1.5836z" style="color:#000000" fill="url(#linearGradient8141)" transform="matrix(1.399 -.46010 .46010 1.399 -143.43 262.58)"/>
    <path id="path4456" d="m656.22 449.1c-1.1454-0.51129-3.056 0.88407-2.5564 1.7893 0.57192 1.0363 3.2318 0.53452 3.3329-1.3124l-3.3424-8.056-4.7798 2.9303 3.1637 7.8482c-1.4046-0.48508-3.1166 0.93551-2.4371 1.8786 0.67547 0.93766 3.4649 0.34638 3.0948-1.6092l-3.0154-7.5815 3.8789-2.5508z" fill-opacity=".60593" transform="matrix(5.7572 0 0 5.7572 -3183.3 -2270.1)" filter="url(#filter4470)" fill="#999"/>
    <path id="path4484" d="m655.03 435.39 0.2692-0.11387 4.7066 10.553-0.20477 0.13847z" fill-opacity=".55508" transform="matrix(5.7572 0 0 5.7572 -3183.3 -2270.1)" filter="url(#filter4490)" fill="#b3b3b3"/>
    <path id="path4333" d="m609.63 465.4c0.27311-2.1723 0.1053-3.651-3.4716-4.618l3.5707 10.213c-0.19996 2.5227-3.0018 2.515-3.5679 1.3733-0.52528-1.0595 1.3842-2.6144 3.0185-1.8638l-3.5083-10.299c4.275 0.7553 5.8711 1.2234 3.9586 5.1944z" fill-opacity=".61017" transform="matrix(5.7572 0 0 5.7572 -3183.3 -2270.1)" filter="url(#filter4351)" fill="#808080"/>
    <path id="path5017" d="m219.09 318.45c30.159-10.929 22.071 75.751 53.903 79.722 75.89 9.4676 94.864-156.05 171.27-152.67 23.195 1.0262 24.52 49.429 47.699 50.756 67.218 3.8469 153.82-131.18 153.82-131.18s-87.042 133.22-154.26 129.38c-23.179-1.3265-24.504-49.73-47.699-50.756-76.403-3.3792-95.378 162.13-171.27 152.67-31.831-3.9712-23.744-90.652-53.903-79.722-38.5 13.95-125.89 165.71-159.03 142.97 33.578 24.54 120.97-127.22 159.47-141.17z" fill="url(#linearGradient8105)"/>
    <path id="path5013" d="m225.4 332.98c30.159-10.929 22.071 75.751 53.903 79.722 75.89 9.4676 94.864-156.05 171.27-152.67 23.195 1.0262 24.52 49.429 47.699 50.756 67.218 3.8469 153.82-131.18 153.82-131.18s-87.042 133.22-154.26 129.38c-23.179-1.3265-24.504-49.73-47.699-50.756-76.403-3.3792-95.378 162.13-171.27 152.67-31.83-3.97-23.74-90.65-53.9-79.72-38.5 13.95-125.88 165.71-159.03 142.97 33.583 24.54 120.97-127.22 159.47-141.17z" fill="url(#linearGradient8102)"/>
    <path id="path5009" d="m232.35 348.76c30.159-10.929 22.071 75.751 53.903 79.722 75.89 9.4676 94.864-156.05 171.27-152.67 23.195 1.0262 24.52 49.429 47.699 50.756 67.218 3.8468 153.82-131.18 153.82-131.18s-87.042 133.22-154.26 129.38c-23.179-1.3265-24.504-49.73-47.699-50.756-76.403-3.3792-95.378 162.13-171.27 152.67-31.831-3.9712-23.744-90.652-53.903-79.722-38.5 13.96-125.89 165.72-159.03 142.97 33.58 24.55 120.97-127.21 159.47-141.17z" fill="url(#linearGradient8099)"/>
    <path id="path5005" d="m236.14 367.71c30.159-10.929 22.071 75.751 53.903 79.722 75.89 9.4676 94.864-156.05 171.27-152.67 23.195 1.0262 24.52 49.429 47.699 50.756 67.218 3.8468 153.82-131.18 153.82-131.18s-87.042 133.22-154.26 129.38c-23.179-1.3265-24.504-49.73-47.699-50.756-76.403-3.3792-95.378 162.13-171.27 152.67-31.831-3.9712-23.744-90.652-53.903-79.722-38.5 13.95-125.89 165.71-159.03 142.97 33.58 24.54 120.97-127.22 159.47-141.17z" fill="url(#linearGradient8096)"/>
    <path id="path4935" d="m240.56 382.87c30.159-10.929 22.071 75.751 53.903 79.722 75.89 9.4676 94.864-156.05 171.27-152.67 23.195 1.0262 24.52 49.429 47.699 50.756 67.218 3.8468 153.82-131.18 153.82-131.18s-87.042 133.22-154.26 129.38c-23.179-1.3265-24.504-49.73-47.699-50.756-76.403-3.3792-95.378 162.13-171.27 152.67-31.83-3.97-23.74-90.65-53.9-79.72-38.5 13.95-125.89 165.71-159.03 142.97 33.58 24.54 120.97-127.22 159.47-141.17z" fill="url(#linearGradient8093)"/>
    <path id="path4780" d="m559.49 463.58c-0.19596-1.0717-0.49719-1.7482-2.3393-1.671l3.2249 4.3111c0.28326 1.227-1.0474 1.6433-1.4872 1.1864-0.40803-0.42399 0.26495-1.448 1.153-1.3368l-3.2082-4.3612c2.1417-0.28231 2.9692-0.29942 2.6568 1.8715z" fill-opacity=".58051" transform="matrix(11.57 0 0 11.57 -6321.2 -4928.5)" filter="url(#filter4199)" fill="#b3b3b3"/>
    <path id="path4216" d="m144.95 433.04c-2.2672-12.399-5.7524-20.226-27.066-19.333l37.312 49.878c3.2773 14.196-12.119 19.012-17.206 13.726-4.7209-4.9055 3.0654-16.753 13.34-15.466l-37.119-50.458c24.779-3.2663 34.353-3.4643 30.739 21.653z" fill="url(#linearGradient8089)"/>
    <path id="path2874-8-4" d="m172.88 405.2c-3.3797 4.0661-4.8735 10.017-1.6259 12.892 3.3051 2.9258 9.5426 0.37858 12.863-3.1986 3.5564-3.83 5.5117-10.092 2.2507-13.1-3.4052-3.1409-10.225-0.51973-13.488 3.4062zm11.446-1.1644c2.2236 2.1494 0.27528 6.1298-2.3971 8.952-2.2167 2.3397-6.4414 4.9257-8.6824 2.8644-2.3157-2.1302-0.32368-6.502 2.2325-9.1598 2.5061-2.6063 6.6354-4.7945 8.847-2.6565z" style="color:#000000" fill="url(#linearGradient8086)"/>
    <path id="path4220" d="m321.95 407.09c1.5724-12.506 0.60624-21.02-19.986-26.587l20.557 58.8c-1.1512 14.524-17.282 14.48-20.541 7.9065-3.0242-6.0996 7.9688-15.052 17.378-10.73l-20.198-59.295c24.612 4.3484 33.801 7.0432 22.79 29.905z" fill="url(#linearGradient8083)"/>
    <path id="path4405" d="m617.29 455.33c1.0059 0.44879 2.6731-0.79945 2.2312-1.6011-0.50593-0.91778-2.8338-0.4597-2.9137 1.1812l2.9662 7.1397 4.1736-2.6249-2.8087-6.956c1.2328 0.42434 2.7259-0.84539 2.1262-1.6799-0.5962-0.82966-3.0371-0.29152-2.7036 1.4437l2.6774 6.7198-3.3861 2.2837z" fill-opacity=".64831" transform="matrix(5.7572 0 0 5.7572 -3183.3 -2270.1)" filter="url(#filter4407)" fill="#999"/>
    <path id="path4222" d="m365.5 350.62c5.791 2.5838 15.39-4.6026 12.845-9.2179-2.9128-5.2839-16.315-2.6466-16.775 6.8004l17.077 41.105 24.028-15.112-16.17-40.047c7.0972 2.443 15.693-4.8671 12.241-9.6714-3.4324-4.7765-17.485-1.6784-15.566 8.3116l15.414 38.687-19.495 13.148z" fill="url(#linearGradient8079)"/>
    <path id="path4412" d="m622.33 444.55c1.5773 0.71138 1.7475 1.98 1.8896 2.099l2.2304 0.31535c-2.966 0.28049-1.1609 3.0444 1.321 2.9103-3.1837-1.8424-2.013-1.5022-0.7563-3.0042-2.0363-0.83789-1.3214-2.0735-1.9138-2.1791l-2.771-0.14147z" fill-opacity=".62288" transform="matrix(5.7572 0 0 5.7572 -3183.3 -2270.1)" filter="url(#filter4414)" fill="#999"/>
    <path id="path3931" d="m392.87 287.82c9.081 4.0956 10.061 11.399 10.879 12.085l12.841 1.8155c-17.076 1.6148-6.6833 17.527 7.6053 16.755-18.329-10.607-11.589-8.6482-4.3542-17.296-11.723-4.8239-7.6076-11.938-11.018-12.545l-15.953-0.81447z" fill="url(#linearGradient8075)"/>
    <path id="path4436" d="m631 449.87c2.5569-2.6886 1.5087-4.1347 0.30529-5.773 4.0233 2.4609 2.4401 3.8048-0.41632 6.4391l-2.9142-10.908c0.16218-2.3693 3.4166-2.2684 3.8301-0.8604 0.33725 1.1482-1.714 1.8997-3.275 1.4709z" fill-opacity=".64407" transform="matrix(5.7572 0 0 5.7572 -3183.3 -2270.1)" filter="url(#filter4442)" fill="#999"/>
    <path id="path4228" d="m443.65 313.79c14.721-15.479 8.6859-23.804 1.7576-33.236 23.163 14.168 14.048 21.905-2.3968 37.071l-16.778-62.797c0.93371-13.641 19.67-13.06 22.051-4.9535 1.9416 6.6106-9.8679 10.937-18.855 8.4684z" fill="url(#linearGradient8071)"/>
    <path id="path4230" d="m524.88 291.57 1.3858 0.5193-6.756 61.15h-1.5591l6.5827-57.512c-3.8991 7.5036-16.102 21.29-23.334 15.41-2.2726-1.8478-0.99042-9.5464 3.2447-8.166 7.0294 2.2914 12.424 1.6455 14.372-1.5274z" fill="url(#linearGradient8068)"/>
    <path id="path4224" d="m587.79 312.82c-6.5944-2.9436-17.594 5.0898-14.718 10.301 3.2927 5.9662 18.606 3.0774 19.188-7.556l-19.243-46.38-27.518 16.87 18.214 45.184c-8.0863-2.7927-17.943 5.3859-14.031 10.816 3.8888 5.3983 19.948 1.9942 17.817-9.2645l-17.36-43.648 22.332-14.686z" fill="url(#linearGradient8065)"/>
    <path id="path4437" fill="url(#linearGradient8062)" d="m623.05 232.01 4.0223 3.254 8.6774-10.802-4.1127-3.2088z"/>
    <path id="path4269" d="m567.84 473.01 0.24833-0.11957 5.187 10.801-0.20509 0.23227z" fill-opacity=".61864" transform="matrix(5.5458 0 0 5.5767 -3063.3 -2184.7)" filter="url(#filter4271)" fill="#999"/>
    <path id="path4755" d="m83.843 454.13 1.3729-0.66594 28.675 60.154-1.1338 1.2936z" fill="url(#linearGradient8058)"/>
    <path id="path4768" d="m79.596 456.49 1.4157-0.64837 28.898 61.083-1.6038 0.5003z" fill="url(#linearGradient8055)"/>
    <path id="path4161" d="m593.3 465.43c2.5569-2.6886 1.5087-4.1347 0.30528-5.773 4.0233 2.4609 2.4401 3.8048-0.41631 6.4391l-2.9142-10.908c0.16217-2.3693 3.4166-2.2684 3.8301-0.8604 0.33726 1.1482-1.714 1.8997-3.275 1.4709z" fill-opacity=".63983" transform="matrix(5.7572 0 0 5.7572 -3183.3 -2270.1)" filter="url(#filter4183)" fill="#ccc"/>
    <path id="path4226" d="m227.11 406.59c14.721-15.479 8.6859-23.805 1.7576-33.236 23.163 14.168 14.048 21.905-2.3968 37.071l-16.778-62.797c0.93365-13.641 19.67-13.06 22.051-4.9535 1.9417 6.6106-9.8679 10.937-18.855 8.4683z" fill="url(#linearGradient8051)"/>
    <path id="path4764" d="m332.03 360.86 1.5181-0.61925 25.416 59.857-1.1603 0.76272z" fill="#7c4000"/>
    <path id="path4753" fill="url(#linearGradient8047)" d="m584.59 238.03 1.5498-0.65557 27.097 60.754-1.1789 0.79721z"/>
  </g>
  <metadata>
    <rdf:RDF>
      <cc:Work>
        <dc:format>image/svg+xml</dc:format>
        <dc:type rdf:resource="http://purl.org/dc/dcmitype/StillImage"/>
        <cc:license rdf:resource="http://creativecommons.org/licenses/publicdomain/"/>
        <dc:publisher>
          <cc:Agent rdf:about="http://openclipart.org/">
            <dc:title>Openclipart</dc:title>
          </cc:Agent>
        </dc:publisher>
        <dc:title>Flying Score Remix</dc:title>
        <dc:date>2011-01-25T21:33:25</dc:date>
        <dc:description>Remix of flying_score by J_Alves. Made each element able to be coloured individually by colour or by gradient. Added a shadow and gold leaf effect using the gradient editor. Note: even-though Document properties background is set to transparent, when saving as a Cairo png, it creates a png with a white background. To correct this Export Bitmap, choose dpi, give file a png extension, and this will create a png with correct transparency. </dc:description>
        <dc:source>http://openclipart.org/detail/110005/flying-score-remix-by-merlin2525</dc:source>
        <dc:creator>
          <cc:Agent>
            <dc:title>Merlin2525</dc:title>
          </cc:Agent>
        </dc:creator>
        <dc:subject>
          <rdf:Bag>
            <rdf:li>Bar</rdf:li>
            <rdf:li>Flying</rdf:li>
            <rdf:li>Music</rdf:li>
            <rdf:li>Note</rdf:li>
            <rdf:li>Notes</rdf:li>
            <rdf:li>Scale</rdf:li>
            <rdf:li>Score</rdf:li>
            <rdf:li>clip art</rdf:li>
            <rdf:li>clipart</rdf:li>
          </rdf:Bag>
        </dc:subject>
      </cc:Work>
      <cc:License rdf:about="http://creativecommons.org/licenses/publicdomain/">
        <cc:permits rdf:resource="http://creativecommons.org/ns#Reproduction"/>
        <cc:permits rdf:resource="http://creativecommons.org/ns#Distribution"/>
        <cc:permits rdf:resource="http://creativecommons.org/ns#DerivativeWorks"/>
      </cc:License>
    </rdf:RDF>
  </metadata>
</svg>
